<svg width="50" height="50" viewBox="0 0 50 50" fill="none" xmlns="http://www.w3.org/2000/svg">
<g id="Group 15">
<rect id="Rectangle 12" width="50" height="50" rx="14" fill="white"/>
<path id="Vector" d="M24.5 25C27.1522 25 29.6957 23.9991 31.5711 22.2175C33.4464 20.4359 34.5 18.0196 34.5 15.5C34.5 12.9804 33.4464 10.5641 31.5711 8.78249C29.6957 7.00089 27.1522 6 24.5 6C21.8478 6 19.3043 7.00089 17.4289 8.78249C15.5536 10.5641 14.5 12.9804 14.5 15.5C14.5 18.0196 15.5536 20.4359 17.4289 22.2175C19.3043 23.9991 21.8478 25 24.5 25ZM20.9297 28.5625C13.2344 28.5625 7 34.4852 7 41.7957C7 43.0129 8.03906 44 9.32031 44H39.6797C40.9609 44 42 43.0129 42 41.7957C42 34.4852 35.7656 28.5625 28.0703 28.5625H20.9297Z" fill="#37D68A"/>
</g>
</svg>
