<svg width="50" height="50" viewBox="0 0 50 50" fill="none" xmlns="http://www.w3.org/2000/svg">
<g id="Group 22">
<rect id="Rectangle 13" width="50" height="50" rx="14" fill="white"/>
<path id="Vector" d="M33.1259 24.2354C31.4123 24.5635 29.5894 23.9893 28.2648 22.499L25.9497 19.8945C25.0382 18.8691 24.5278 17.4883 24.5278 16.0391V15.2119L19.6849 12.2383C19.3628 12.04 19.1623 11.6504 19.1806 11.2334C19.1988 10.8164 19.4175 10.4473 19.7578 10.2764L22.6259 8.84082C23.7439 8.28711 24.9531 8 26.1806 8H27.2804C29.5104 8 31.6554 8.95703 33.2778 10.6729L35.9878 13.5439C37.4583 15.1025 38.0052 17.3516 37.6042 19.4229L38.5642 20.5098L39.0503 19.9629C39.6215 19.3203 40.5451 19.3203 41.1102 19.9629L42.5686 21.6035C43.1398 22.2461 43.1398 23.2852 42.5686 23.9209L37.2214 29.9365C36.6502 30.5791 35.7266 30.5791 35.1615 29.9365L33.7031 28.2959C33.1319 27.6533 33.1319 26.6143 33.7031 25.9785L34.1892 25.4316L33.1259 24.2354ZM9.66493 33.7783L23.8533 20.4824C24.066 20.8174 24.309 21.1387 24.5703 21.4395L26.8854 24.0439C27.25 24.4541 27.6389 24.8096 28.0521 25.1172L16.197 41.127C15.316 42.3164 14.0095 43 12.6363 43C10.072 43 8 40.6621 8 37.7842C8 36.2393 8.61372 34.7695 9.66493 33.7783Z" fill="#37D68A"/>
</g>
</svg>
