<svg width="50" height="50" viewBox="0 0 50 50" fill="none" xmlns="http://www.w3.org/2000/svg">
<g id="Group 13">
<rect id="Rectangle 12" width="50" height="50" rx="14" fill="white"/>
<path id="Vector" d="M6 10.5469C6 9.68965 6.6932 9 7.55485 9H10.5026C11.9279 9 13.1912 9.825 13.7807 11.0625H40.4076C42.1114 11.0625 43.3553 12.6738 42.9083 14.3109L40.2521 24.1271C39.7014 26.151 37.855 27.5625 35.7495 27.5625H17.0589L17.4087 29.3994C17.5513 30.1277 18.1926 30.6562 18.9377 30.6562H37.6153C38.477 30.6562 39.1702 31.3459 39.1702 32.2031C39.1702 33.0604 38.477 33.75 37.6153 33.75H18.9377C16.6961 33.75 14.772 32.1645 14.3573 29.9795L11.0144 12.5127C10.969 12.2678 10.7553 12.0938 10.5026 12.0938H7.55485C6.6932 12.0938 6 11.4041 6 10.5469ZM14.2925 38.9062C14.2925 38.5 14.373 38.0977 14.5293 37.7223C14.6855 37.347 14.9146 37.0059 15.2034 36.7186C15.4921 36.4314 15.8349 36.2035 16.2122 36.048C16.5895 35.8925 16.9939 35.8125 17.4022 35.8125C17.8106 35.8125 18.215 35.8925 18.5923 36.048C18.9696 36.2035 19.3124 36.4314 19.6011 36.7186C19.8899 37.0059 20.119 37.347 20.2752 37.7223C20.4315 38.0977 20.512 38.5 20.512 38.9062C20.512 39.3125 20.4315 39.7148 20.2752 40.0902C20.119 40.4655 19.8899 40.8066 19.6011 41.0939C19.3124 41.3811 18.9696 41.609 18.5923 41.7645C18.215 41.92 17.8106 42 17.4022 42C16.9939 42 16.5895 41.92 16.2122 41.7645C15.8349 41.609 15.4921 41.3811 15.2034 41.0939C14.9146 40.8066 14.6855 40.4655 14.5293 40.0902C14.373 39.7148 14.2925 39.3125 14.2925 38.9062ZM36.0605 35.8125C36.8852 35.8125 37.6762 36.1384 38.2594 36.7186C38.8425 37.2988 39.1702 38.0857 39.1702 38.9062C39.1702 39.7268 38.8425 40.5137 38.2594 41.0939C37.6762 41.6741 36.8852 42 36.0605 42C35.2357 42 34.4448 41.6741 33.8616 41.0939C33.2784 40.5137 32.9508 39.7268 32.9508 38.9062C32.9508 38.0857 33.2784 37.2988 33.8616 36.7186C34.4448 36.1384 35.2357 35.8125 36.0605 35.8125Z" fill="#37D68A"/>
</g>
</svg>
