<svg width="50" height="50" viewBox="0 0 50 50" fill="none" xmlns="http://www.w3.org/2000/svg">
<g id="Group 20">
<rect id="Rectangle 12" width="50" height="50" rx="14" fill="white"/>
<path id="Vector" d="M21.8955 13.7734L30.29 23.3672C30.7822 23.9297 31.0625 24.7031 31.0625 25.5C31.0625 26.2969 30.7822 27.0703 30.29 27.6328L21.8955 37.2266C21.458 37.7266 20.8701 38 20.2549 38C18.9766 38 17.9375 36.8125 17.9375 35.3516V30.5H9.1875C7.97754 30.5 7 29.3828 7 28V23C7 21.6172 7.97754 20.5 9.1875 20.5H17.9375V15.6484C17.9375 14.1875 18.9766 13 20.2549 13C20.8701 13 21.458 13.2812 21.8955 13.7734ZM31.0625 38H35.4375C36.6475 38 37.625 36.8828 37.625 35.5V15.5C37.625 14.1172 36.6475 13 35.4375 13H31.0625C29.8525 13 28.875 11.8828 28.875 10.5C28.875 9.11719 29.8525 8 31.0625 8H35.4375C39.0605 8 42 11.3594 42 15.5V35.5C42 39.6406 39.0605 43 35.4375 43H31.0625C29.8525 43 28.875 41.8828 28.875 40.5C28.875 39.1172 29.8525 38 31.0625 38Z" fill="#37D68A"/>
</g>
</svg>
