<svg width="35" height="42" viewBox="0 0 35 42" fill="none" xmlns="http://www.w3.org/2000/svg">
<path d="M11.0133 1.66814L11.0134 1.66815L11.0147 1.66531C11.3574 0.938982 12.0529 0.5 12.7969 0.5H22.2031C22.9471 0.5 23.6426 0.938981 23.9853 1.66531L23.9867 1.66814L24.5492 2.84119L24.6852 3.125H25H32.5C33.584 3.125 34.5 4.05092 34.5 5.25C34.5 6.44908 33.584 7.375 32.5 7.375H2.5C1.41604 7.375 0.5 6.44908 0.5 5.25C0.5 4.05092 1.41604 3.125 2.5 3.125H10H10.3148L10.4508 2.84119L11.0133 1.66814ZM3 11H32V36.75C32 39.3928 29.959 41.5 27.5 41.5H7.5C5.04104 41.5 3 39.3928 3 36.75V11ZM10 15.25C9.01365 15.25 8.25 16.0878 8.25 17.0625V35.4375C8.25 36.4122 9.01365 37.25 10 37.25C10.9864 37.25 11.75 36.4122 11.75 35.4375V17.0625C11.75 16.0878 10.9864 15.25 10 15.25ZM17.5 15.25C16.5136 15.25 15.75 16.0878 15.75 17.0625V35.4375C15.75 36.4122 16.5136 37.25 17.5 37.25C18.4864 37.25 19.25 36.4122 19.25 35.4375V17.0625C19.25 16.0878 18.4864 15.25 17.5 15.25ZM25 15.25C24.0136 15.25 23.25 16.0878 23.25 17.0625V35.4375C23.25 36.4122 24.0136 37.25 25 37.25C25.9864 37.25 26.75 36.4122 26.75 35.4375V17.0625C26.75 16.0878 25.9864 15.25 25 15.25Z" fill="#3761F6" stroke="black"/>
</svg>
